<?xml version="1.0" encoding="UTF-8"?>
<svg version="1.1" viewBox="0 0 2048 730" width="1280" height="1280" xmlns="http://www.w3.org/2000/svg">
<path transform="translate(0)" d="m0 0h2048v730h-2048z" fill="#FDFDFD"/>
<path transform="translate(355,148)" d="m0 0h322l19 1 9 2 10 5 7 6 6 9 4 10 1 14v317l-1 15-4 11-7 9-3 1v2l-10 6-9 3-13 1h-200l-1-21v-24l2-4h57l18-2 19-5 19-8 16-10h2v-2l10-8 10-9 4-5h2l2-5h2l2-4 8-13 4-8-5-2-10-5-5-1-11 17-11 13-11 10-11 7-12 7-22 8-10 2-11 1h-57l-1-2v-16l2-3 46-1 17-2 16-5 16-8 13-9 14-14 7-10 9-17 6-18 3-19v-11l-3-17-2-8-4-11-11-21-7-9v-2l-4-2-10-9-15-10-15-7-13-4-15-2h-18l-19 3-15 5-17 9-5 4h-2v2l-8 7-7 7-1 2h-2l-1 4h-2l-1 4-8 13-6 15-4 18-1 49-1 24h-1v-21h-24l-1-12 1-39 5-25 5-14 7-14 9-14 9-11h2l2-4 8-7 5-5 12-9 15-8 14-5 13-4 13-2 13-1h14l15 2 23 6 21 10 12 8 11 9 9 9v2h2l12 16 3 1 12-7h2v-2h2l-2-8h-2l-5-7v-2h-2l-9-11-13-12-14-10-16-9-19-8-18-5-17-3-12-1h-10l-18 2-20 4-13 4-18 8-16 10-13 10-3 1-2 4-5 5-4 2-2 4-2 3h-2l-2 5-7 9-11 20-9 23-3 14-2 15-1 23v30h-67v-196l1-16 3-11 4-6 9-10 8-5 8-3 6-1z" fill="#FEFEFE"/>
<path transform="translate(372,126)" d="m0 0h270l57 1 16 4 13 7 11 10v2h2l9 15 3 8 1 7v350l-3 11-5 10-6 8-8 8h-2v2l-13 8-13 4-13 1h-211l-15-1-1-183v-40l2-15 4-11 7-12 8-8 14-9 11-4 6-1h20l12 3 16 8 11 11 8 13 5 15 1 8v9l-3 14-8 16-11 12-14 9-12 4-21 2h-34v20l1 3 5 1 37-1 17-2 15-5 9-5 9-6h2v-2l8-7 11-15 7-15 4-15 1-9v-13l-3-15-5-13-6-12-4-5v-2h-2l-7-8-12-9-13-7-20-5h-28l-14 3-16 8-11 8-7 6-10 13-8 16-4 12-1 6-1 16-1 219h-102l-13-3-13-7-10-8-7-8-7-12-3-9-2-15v-52l1-26 21-1h113v-47l1-49 4-18 7-17 7-11 2-4h2l1-4h2l2-4 12-12h2v-2l10-7 19-9 16-4 13-2h18l15 2 13 4 17 8 14 10 11 10 5 5 9 14 8 17 4 10 3 15 1 8v11l-3 19-6 18-10 19-9 11-13 13-14 9-10 5-11 4-9 3-17 2-46 1-1 2v18l57-1 17-2 21-7 12-6 11-7 8-6 11-10 10-13 8-13 3-1 9 4 9 5-2 6-6 10-6 9h-2l-2 5-13 13-11 9h-2v2l-22 13-21 8-20 4-17 1h-51l-1 3v45l3-1h202l12-2 12-6 3-1v-2l5-4 5-9 3-8 1-15v-317l-1-14-4-10-4-6-4-5-9-6-8-3-8-1-22-1h-317l-15 1-10 3-9 5-7 7-4 5-4 10-1 5-1 16-1 196 66-1v-34l2-27 2-11 3-11 6-16 8-16 7-12 8-11h2l2-4 8-9 8-7 16-12 17-10 19-8 21-5 14-2 13-1h9l19 2 24 6 20 8 15 8 14 10 14 12 11 12v2h2l5 7v2h2l3 6-1 2h-2v2l-14 8-4-2-10-13-1-3h-2l-7-8-10-9-15-10-21-10-23-6-18-2h-14l-18 2-15 4-10 3-16 8-9 5-10 8-3 1-1 3-8 7-9 10-10 14-7 14-7 18-5 25-1 51h24v22l-119 1-13-1-1-22-1-43v-173l3-12 8-15 4-6 8-7 6-5 16-7 16-2z" fill="#6494A4"/>
<path transform="translate(372,126)" d="m0 0h270l57 1 16 4 13 7 11 10v2h2l9 15 3 8 1 7v350l-3 11-5 10-6 8-8 8h-2v2l-13 8-13 4-13 1h-186l-19-1 1-21 2-1h202l12-2 12-6 3-1v-2l5-4 5-9 3-8 1-15v-317l-1-14-4-10-4-6-4-5-9-6-8-3-8-1-22-1h-317l-15 1-10 3-9 5-7 7-4 5-4 10-1 5-1 16-1 196 66-1v-34l2-27 2-11 3-11 6-16 8-16 7-12 8-11h2l2-4 8-9 8-7 16-12 17-10 19-8 21-5 14-2 13-1h9l19 2 24 6 20 8 15 8 14 10 14 12 11 12v2h2l5 7v2h2l3 6-1 2h-2v2l-14 8-4-2-10-13-1-3h-2l-7-8-10-9-15-10-21-10-23-6-18-2h-14l-18 2-15 4-10 3-16 8-9 5-10 8-3 1-1 3-8 7-9 10-10 14-7 14-7 18-5 25-1 51h24v22l-119 1-13-1-1-22-1-43v-173l3-12 8-15 4-6 8-7 6-5 16-7 16-2z" fill="#65666A"/>
<path transform="translate(516,298)" d="m0 0h20l12 3 16 8 11 11 8 13 5 15 1 8v9l-3 14-8 16-11 12-14 9-12 4-21 2h-34v67l57-1 17-2 21-7 12-6 11-7 8-6 11-10 10-13 8-13 3-1 9 4 9 5-2 6-6 10-6 9h-2l-2 5-13 13-11 9h-2v2l-22 13-21 8-20 4-17 1h-51l-1 3v24l1 21v20l-2 2-20-1-1-183v-40l2-15 4-11 7-12 8-8 14-9 11-4z" fill="#FB7152"/>
<path transform="translate(359,462)" d="m0 0h41l17 1 1 2v95h-75l-12-3-12-7-8-9-4-8-3-12-1-16v-41l1-1z" fill="#FEFEFE"/>
<path transform="translate(523,200)" d="m0 0h11l19 2 24 6 20 8 15 8 14 10 14 12 11 12v2h2l5 7v2h2l3 6-1 2h-2v2l-14 8-4-2-10-13-1-3h-2l-7-8-10-9-15-10-21-10-23-6-18-2h-14l-18 2-15 4-10 3-16 8-9 5-10 8-3 1-1 3-8 7-9 10-10 14-7 14-7 18-5 25-1 51h-17l-6-1v-34l2-27 2-11 3-11 6-16 8-16 7-12 8-11h2l2-4 8-9 8-7 16-12 17-10 19-8 21-5 14-2z" fill="#65656A"/>
<path transform="translate(1650,218)" d="m0 0 11 1 10 3 12 11 5 8 4 12 2 17v16l-2 13-5 16-4 6-10 8-10 4-7 1h-8l-10-3-9-6-7-8-5-11-3-14-1-10v-13l2-16 4-12 6-10 4-4h2v-2l12-6z" fill="#65666A"/>
<path transform="translate(925,218)" d="m0 0h8l12 3 5 3 5 6 3 3 5 8 4 13 1 6 1 25-3 19-6 14-11 11-9 4-6 1h-10l-13-4-8-6-6-7-4-8-3-12-1-8v-29l3-13 7-14 6-7 4-1v-2l10-4z" fill="#65666A"/>
<path transform="translate(1233,221)" d="m0 0h47l8 2 8 6 6 9 3 12v11l-2 9-6 8-6 5 1 5 8 19 5 12 4 10-1 3h-24l-5-10-10-30-1-4h-12v44h-15l-9-1v-99z" fill="#65666A"/>
<path transform="translate(1333,371)" d="m0 0 19 1 8 4 8 9 4 10 1 15-2 9-7 8-6 5 2 7 5 13 7 15 5 12v2h-23l-4-1-9-24-3-10-5-8-9-1-1 44h-17l-6-1v-108z" fill="#65666A"/>
<path transform="translate(970,371)" d="m0 0h33l17 1 6 2 8 6 6 9 2 8v16l-4 10-8 7-3 3 6 15 5 12 7 17v4h-23l-3-3-4-11-7-20-3-8-5-1h-6l-1 5v38h-21l-2-1-1-14v-90z" fill="#65666A"/>
<path transform="translate(989,220)" d="m0 0h22l3 5 10 25 7 18 7 14 1-1 1-35v-24l3-2h15l1 40v72h-16l-5-2-6-8-11-26-4-12-5-11-5-13-1-3h-2v51l-1 23-1 1h-15l-2-1v-108l1-2z" fill="#65676C"/>
<path transform="translate(1717,221)" d="m0 0h17l4 3 8 19 8 20 7 15 4 7 1-63h16l1 1v105l-1 3-12 1-7-1-5-8-7-17-5-12-5-11-4-10-7-14-1 4-1 67-1 2-17-1-1-2v-107z" fill="#65666B"/>
<path transform="translate(1545,371)" d="m0 0 3 1 1 35v53l-1 20h-22l-1-5-1-38-14-1h-12v42l-1 2-14 1-9-1-1-80 1-28h24v42h25l1-1 1-41z" fill="#65656A"/>
<path transform="translate(1136,371)" d="m0 0h17l8 16 5 13 8 21 6 11h1l1-61h18v109l-1 1h-12l-9-2-8-16-5-13-5-12-6-16-4-9-4-6-1 26v38l-1 10-17-1-1-1v-54l1-53z" fill="#65666A"/>
<path transform="translate(1617,371)" d="m0 0h40l13 2 5 2 5 5 5 7 3 10v17l-5 13-8 8-11 4-6 1h-19v41l-23-1-1-1v-107z" fill="#65666A"/>
<path transform="translate(803,371)" d="m0 0h42l13 2 8 6 7 9 3 14v10l-3 11-7 9-9 6-10 2-10 1h-11v40h-22l-1-1z" fill="#65656A"/>
<path transform="translate(905,371)" d="m0 0h22l3 5 10 33 7 23 7 29 4 16v4h-19l-5-2-4-16-1-3-29-1-2 1-3 17-4 4h-19l1-9 7-24 7-25 7-22 8-26z" fill="#65666A"/>
<path transform="translate(523,319)" d="m0 0h7l11 3 9 5 9 9 5 10 2 7v13l-4 11-7 10-7 6-11 5-4 1h-46l-1-1v-39l2-12 5-10 7-8 10-6z" fill="#FEFEFE"/>
<path transform="translate(1102,218)" d="m0 0h16l10 3 6 4 8 10 4 8-2 4-12 5-7-1-3-4v-2h-2l-4-4-8-1-6 3-2 3-1 7 3 1v2l5 2 10 5 10 4 6 3 9 8v2h2l5 12v9l-3 10-4 8-6 6h-2v2l-10 5-12 2h-8l-9-2-10-6-8-9-4-8-1-4 1-3 12-4h8l6 11 5 3h9l6-3h2l2-6v-7l-3-1v-2l-5-2-11-5-10-4-9-6-6-7-3-6-1-14 2-9 6-9 9-8z" fill="#65666A"/>
<path transform="translate(1413,369)" d="m0 0h14l10 2 10 6 8 11 1 6-8 5-5 2h-6l-7-7-2-1v-2l-11-1h-2l-2 4-3 3v6h2v2l5 2 17 8 12 6 5 4 7 12 1 3 1 12-5 13-7 8-9 6-9 3-4 1h-13l-13-5-6-4v-2l-4-2v-2h-2l-6-11 1-5 11-4 8-1 4 5 1 5 3 1v2l8 2h6l7-4 3-5v-5l-6-5-14-8-10-4-6-4-7-6-3-4-3-13 1-10 6-12 9-8 8-4z" fill="#65666A"/>
<path transform="translate(1321,221)" d="m0 0h24l1 1v66l2 16 2 4 7 4h8l6-2 1-3h2l2-15v-20l1-50 16-1 3 1v84l-3 9-4 6-4 5-12 6-10 2h-8l-10-2-9-4-5-3-6-9-3-12-1-11-1-41v-18z" fill="#65666A"/>
<path transform="translate(833,219)" d="m0 0h16l9 3 9 7 8 14 2 6v13l-1 1-18 1-2-1-2-12-5-8-7-3-7 1-6 7-3 10-1 4-1 18 2 17 4 10 4 4 10 1 5-3 1-2h2l1-5 4-10 7-1 15 2-2 12-4 10-6 8-14 9-10 2h-8l-11-3-8-5-4-4v-2h-2l-5-9-5-13-2-12v-23l4-16 8-15 8-7 11-5z" fill="#65666A"/>
<path transform="translate(1447,219)" d="m0 0h19l10 5 7 7 6 10 4 16v5l-3 1-17 1-2-1-3-13-4-6-3-3-8-1-5 1-1 3h-2l-5 15-1 9v21l4 15 3 5 7 3 8-1 3-1 2-4 6-14 7-1 14 2-1 11-4 10-7 9-4 2v2l-13 6-5 1h-7l-16-4-8-6v-2h-2l-7-12-4-11-2-13v-19l2-14 7-16 3-5 8-7 9-5z" fill="#65666A"/>
<path transform="translate(1221,371)" d="m0 0h52l14 1v13l-1 4-4 1-37 1v22l2 1h17l13 1 1 3v13l-1 3-32 1v23l2 2 40 1v20h-63l-3-1z" fill="#65666A"/>
<path transform="translate(283,463)" d="m0 0h20l1 42 1 16 3 12 6 11 7 6 10 6 12 3 75 1v21l-56 1h-25l-13-3-13-7-10-8-7-8-7-12-3-9-2-15v-52z" fill="#65656A"/>
<path transform="translate(642,423)" d="m0 0 10 3 10 6-2 6-6 10-6 9h-2l-2 5-13 13-11 9h-2v2l-22 13-21 8-20 4-17 1h-52v-23l57-1 17-2 21-7 12-6 11-7 8-6 11-10 10-13 8-13z" fill="#65666A"/>
<path transform="translate(1496,221)" d="m0 0h67v19l-7 1-15 1 1 12-1 75-1 3h-19l-4-1v-34l-1-55-20-1-1-3v-13z" fill="#65666A"/>
<path transform="translate(1156,221)" d="m0 0h67v19l-2 1-20 1v56l-1 33h-22l-1-1v-88l-19-1-3-3v-11z" fill="#65666A"/>
<path transform="translate(1051,371)" d="m0 0h32l35 1 1 9v10l-20 1-2 1-1 50v27l-1 10h-22l-1-12v-75l-4-1-18-1v-19z" fill="#65666B"/>
<path transform="translate(1137,136)" d="m0 0h31v8l-1 1-16 1-4 1v9l13 2 3 3-1 5-1 1h-7l-7 2v8l3 3 16 1 3 4 5-5 6-12 1-8-3-10-7-14h10l5 8 3 5 2 1 2-5 6-8h6l-1 5-7 14v7l5 14 4 6h3l8-28 5-13 4-6h6l3 3 6 19 8 32h-7l-5-4-6-8-1-1h-6l-9 12-4 2h-7l-6-3-4-5-5-8-2-1-2 5-6 9-4 2-26 1-12-1-1-24v-28z" fill="#529CB2"/>
<path transform="translate(370,396)" d="m0 0 46 1v22l-119 1-13-1-1-21 1-1z" fill="#FC7152"/>
<path transform="translate(970,136)" d="m0 0h21l5 3 5 6 1 9-2 7-3 4 1 9 5 14 4-1 10-38 4-10 2-2 6-1 4 4 7 19 5 19 1 12h-6l-4-4-4-7-4-1-9 1-4 10-5 2h-11l-5-3-6-12-2-5-7-1v20h-10l-1-1v-46z" fill="#539BB1"/>
<path transform="translate(1571,371)" d="m0 0h21l2 3v100l-1 6h-23v-108z" fill="#656569"/>
<path transform="translate(1573,221)" d="m0 0h22l1 9v94l-1 7-2 1h-17l-4-2v-108z" fill="#65676B"/>
<path transform="translate(982,517)" d="m0 0h14l7 2 5 4 2 5v10l-4 6-1 1v8l7 14 4 1 3-9 5-20 6-19 3-2h8l3 6 8 30 3 12v5h-6l-3-3-3-10h-15l-4 10-3 3h-12l-7-3-7-17-9-3v9l1 13-1 1h-6l-2-2-1-17v-34z" fill="#539BB1"/>
<path transform="translate(925,240)" d="m0 0h9l5 4 4 11 1 11v23l-3 15-2 4h-2l-2 4-3 1h-7l-7-6-3-7-1-7v-34l2-10 4-6z" fill="#FEFEFE"/>
<path transform="translate(1648,240)" d="m0 0h10l7 6 2 8 1 15v18l-2 16-4 6-6 4h-7l-5-5-3-6-2-8-1-14v-13l2-14 4-9z" fill="#FEFEFE"/>
<path transform="translate(898,516)" d="m0 0h8l6 4 5 8 2 9v17l-3 8-6 7-5 2h-9l-7-5-5-9-2-10v-9l2-9 5-8 6-4z" fill="#529BB1"/>
<path transform="translate(1064,518)" d="m0 0h14l2 3 4 20 2 9h2l3-11 4-15 3-6h12l1 1v52h-7v-39h-5l-2 9-4 16-1 2-1 10-7 1-2-4-5-21-4-10h-2v35l-1 1h-5l-1-4z" fill="#539BB1"/>
<path transform="translate(845,517)" d="m0 0h16l7 3 4 5 1 3v9l-4 8-1 1 1 8 7 15v2h-7l-4-2-6-18-10-3v23h-8l-1-1v-38l1-14z" fill="#539BB1"/>
<path transform="translate(801,517)" d="m0 0h19l7 2 4 6 1 4v10l-2 5-4 4-17 4-1 18-1 1h-7l-1-1-1-25v-27z" fill="#529BB1"/>
<path transform="translate(893,136)" d="m0 0 7 1 3 3 9 22 4 3 1-28h7l1 1v52h-9l-7-14-7-18-3-5-1 2-1 35h-5l-1-1v-44l1-8z" fill="#529BB2"/>
<path transform="translate(851,136)" d="m0 0h29l2 6-1 4h-10l-8 1-1 1-1 9 15 1 2 2-1 6-6 1-7 1-1 1v10l3 1 16 1 1 1-1 7-1 1-14 1h-13l-3-2z" fill="#529CB2"/>
<path transform="translate(1033,518)" d="m0 0h8l3 6 8 30 3 12v5h-6l-3-3-3-10h-15l-4 10-3 3h-6l-1-3h2l3-9 5-20 6-19z" fill="#539BB1"/>
<path transform="translate(945,516)" d="m0 0h7l6 3 5 6 2 9-2 4-10-11-2-1h-6l-4 5-2 5v16l3 7 6 4 5-2 4-6v-4l-8-3 1-5h15l1 7v19h-3l-2-3-10 5h-8l-6-3-5-6-3-7-1-5v-13l3-10 4-6 6-4z" fill="#529CB2"/>
<path transform="translate(824,135)" d="m0 0 10 2 6 8 1 2v11l-5-3-6-8-4-2-5 1-3 4-2 9 1 13 3 7 2 1h6l10-11 4 1-1 9-5 8-7 4h-9l-7-4-6-8-3-12v-8l3-12 6-8 6-3z" fill="#529CB2"/>
<path transform="translate(1265,136)" d="m0 0h11l6 4 4 4-1 5-4 1-9-5-6 1-2 2v5l18 8 5 6 1 2v8l-3 6-7 6-5 2-9-1-9-8-2-6 2-2 5 1 7 6 4 1 6-4 1-7-10-3-9-6-5-5v-10l3-5 6-5z" fill="#529CB2"/>
<path transform="translate(1112,136)" d="m0 0h16l2 9-1 1-7 1-1 1v41l-1 1h-10l-1-1v-42l-8-1-3-4v-5z" fill="#529BB2"/>
<path transform="translate(1055,136)" d="m0 0 10 1 1 6 1 37h12l2 2v7l-1 1h-25l-1-5-1-23v-21z" fill="#529CB2"/>
<path transform="translate(1027,136)" d="m0 0 5 2 6 15 7 25 1 12h-6l-4-4-4-10v-4l-11-3 1-10 1-2-7 3-1-4 5-15 3-4z" fill="#529CB2"/>
<path transform="translate(932,137)" d="m0 0h28l1 2v6l-2 1h-7v44h-12v-41l-1-2-9-2v-6z" fill="#529BB2"/>
<path transform="translate(994,388)" d="m0 0 12 1 8 4 3 4 1 9-3 9h-2v2l-4 2-10 1-6-2-1-2v-22z" fill="#FEFEFE"/>
<path transform="translate(828,388)" d="m0 0 14 2 5 3 2 4v15l-3 5-4 3-5 1h-7l-4-2-1-2v-21l1-7z" fill="#FEFEFE"/>
<path transform="translate(1258,239)" d="m0 0 15 1 7 6 1 3v11l-4 7-7 3h-12l-2-2-1-6 1-21z" fill="#FEFEFE"/>
<path transform="translate(1325,388)" d="m0 0h7l10 3 5 5 1 4v10l-3 5-6 4h-14l-2-2v-25z" fill="#FEFEFE"/>
<path transform="translate(1639,388)" d="m0 0 12 1 6 2 4 5 2 7-1 10-4 5-8 3h-8l-3-2z" fill="#FEFEFE"/>
<path transform="translate(898,524)" d="m0 0 6 1 5 5 2 10v9l-3 9-5 5-5-1-4-4-2-4-1-16 2-8 3-5z" fill="#FEFEFE"/>
<path transform="translate(1171,136)" d="m0 0h10l5 8 3 5 2 1 2-5 6-8h6l-1 5-7 14v7l4 11-1 2-4-5-2-6-4-2-1 4-6 1-2-4-1-9-7-16z" fill="#529BB2"/>
<path transform="translate(805,156)" d="m0 0 6 5 1 8 1 3h2l3 6 4 2h6l10-11 4 1-1 9-5 8-7 4h-9l-7-4-6-8-3-12v-8z" fill="#529CB2"/>
<path transform="translate(912,399)" d="m0 0 4 4 3 10 4 18 1 7-3 1h-16l-2-4 4-16 4-19z" fill="#FEFEFE"/>
<path transform="translate(1021,157)" d="m0 0h2l-2 12 7 1 5 2v5 3l-5-2-9 1-4 10-2 1h-8l3-7 6-23z" fill="#519CB2"/>
<path transform="translate(987,525)" d="m0 0h10l6 4 1 6-4 5-4 2-9-1-2-2-1-9z" fill="#FEFEFE"/>
<path transform="translate(850,525)" d="m0 0h10l5 3 1 7-3 5-4 2-9-1-1-2v-12z" fill="#FEFEFE"/>
<path transform="translate(808,525)" d="m0 0h9l5 3 1 1v8l-4 4-9 2-3-7v-9z" fill="#FEFEFE"/>
<path transform="translate(980,144)" d="m0 0h7l5 3 1 2v6l-4 4-7 1-4-3v-11z" fill="#FEFEFE"/>
<path transform="translate(1034,529)" d="m0 0h2l4 7 2 15h-13l1-10 3-11z" fill="#FEFEFE"/>
<path transform="translate(1184,151)" d="m0 0 3 4 4 4-1-6 5 2 2-1v9l4 11-1 2-4-5-2-6-4-2-1 4-6 1-2-4v-9l2-1z" fill="#6595A5"/>
<path transform="translate(1021,157)" d="m0 0h2l-2 12 7 1 5 2v5 3l-5-2h-5l-1-3v-4l-6-5-2 8-3-1 3-13z" fill="#6395A6"/>
<path transform="translate(1227,149)" d="m0 0 3 3 3 11v6l-10 1-1-1 1-9 2-9z" fill="#FEFEFE"/>
<path transform="translate(1064,137)" d="m0 0h1l1 6 1 37-4-2-1-4v-34z" fill="#6595A5"/>
<path transform="translate(1025,151)" d="m0 0 3 3 3 11v5l-10-1 1-10 2-7z" fill="#FEFEFE"/>
<path transform="translate(806,150)" d="m0 0 1 4h3l6-1v12l2 10 1 4-4-4v-3h-2l-2-3-1-8-5-5z" fill="#6495A5"/>
<path transform="translate(1020,169)" d="m0 0h6l7 3v5 3l-5-2h-5l-1-3v-4z" fill="#6595A5"/>
<path transform="translate(800,537)" d="m0 0 4 2 3 6v3l-4 2-3 1z" fill="#6595A5"/>
<path transform="translate(1220,164)" d="m0 0h2l1 6-2 3-1-2-3 1v-2h-2v-4z" fill="#6395A6"/>
<path transform="translate(965,550)" d="m0 0h1v19h-3l-2-5 3-2z" fill="#6595A5"/>
</svg>
